# xmcd
#
# Track frame offsets:
# 150
# 11465
# 24917
# 37577
# 49762
# 63942
# 73527
# 84557
# 98850
# 111167
# 123337
# 133745
# 147692
# 160425
# 175245
# 184720
# 196437
# 209160
# 222152
# 230367
# 241500
# 251230
# 263565
# 274605
# 295422
# 307900
# 319750
# 330780
#
# Disc length: 4573 seconds
#
#
# Revision: 3
# Processed by: cddbd v1.5.1PL0 Copyright (c) Steve Scherf et al.
# Submitted via: FreeRIP 2.91 
#
DISCID=8e11db1c
DTITLE=Tex Ritter - High Noon
DYEAR=1992
DGENRE=country
TTITLE0=High Noon (Film Version) 1952
TTITLE1=Blood On The Saddle 1946
TTITLE2=Jingle, Jangle, Jingle 1942
TTITLE3=Goodbye, My Little Cherokee 1942
TTITLE4=Bad Brahma Bull 1946
TTITLE5=Boogie Woogie Cowboy 1950
TTITLE6=He's A Cowboy Auctioneer 1950
TTITLE7=Rye Whiskey 1946
TTITLE8=Texas Rangers 1945
TTITLE9=Chisholm Trail 1946
TTITLE10=Billy The Kid 1945
TTITLE11=Cattle Call 1946
TTITLE12=San Antonio Story 1953
TTITLE13=Marshall's Daughter 1953
TTITLE14=Wichita 1955
TTITLE15=Prarie Home 1954
TTITLE16=Gunsmoke 1955
TTITLE17=Remember The Alamo 1955
TTITLE18=Last Frontier 1956
TTITLE19=Searchers 1956
TTITLE20=Buffalo Dream 1953
TTITLE21=The Bandit 1954
TTITLE22=Brave Man 1954
TTITLE23=Trooper Hook (Part1 and 2) 1957
TTITLE24=Wayward Wind 1956
TTITLE25=When It's Springtime In The Rockies 1992
TTITLE26=Night Herding Song 1945
TTITLE27=High Noon (CV) 1952
EXTD=Original Capitol Recordings\nBear Family Records\nBCD 15634
EXTT0=
EXTT1=
EXTT2=
EXTT3=
EXTT4=
EXTT5=
EXTT6=
EXTT7=
EXTT8=
EXTT9=
EXTT10=
EXTT11=
EXTT12=
EXTT13=
EXTT14=
EXTT15=
EXTT16=
EXTT17=
EXTT18=
EXTT19=
EXTT20=
EXTT21=
EXTT22=
EXTT23=
EXTT24=
EXTT25=
EXTT26=
EXTT27=
PLAYORDER=
